<svg width="1440" height="1024" viewBox="0 0 1440 1024" fill="none" xmlns="http://www.w3.org/2000/svg">
<g id="Stars">
<g id="Stars_2">
<ellipse id="Ellipse 5" cx="1302.58" cy="921.561" rx="1.85474" ry="1.58695" transform="rotate(-180 1302.58 921.561)" fill="white"/>
<ellipse id="Ellipse 29" cx="1240.45" cy="967.186" rx="1.85474" ry="1.58695" transform="rotate(-180 1240.45 967.186)" fill="white"/>
<ellipse id="Ellipse 30" cx="1293.31" cy="1001.31" rx="1.85474" ry="1.58695" transform="rotate(-180 1293.31 1001.31)" fill="white"/>
<ellipse id="Ellipse 31" rx="1.19642" ry="1.04557" transform="matrix(-0.974712 -0.223464 0.298854 -0.954299 1436.91 1022.73)" fill="white"/>
<ellipse id="Ellipse 32" cx="1427.3" cy="918.388" rx="1.85474" ry="1.58695" transform="rotate(-180 1427.3 918.388)" fill="white"/>
<ellipse id="Ellipse 6" cx="1286.51" cy="869.723" rx="3.08951" ry="2.64343" transform="rotate(-180 1286.51 869.723)" fill="white"/>
<ellipse id="Ellipse 7" cx="1408.01" cy="894.733" rx="1.21718" ry="1.04143" transform="rotate(-180 1408.01 894.733)" fill="white"/>
<ellipse id="Ellipse 8" cx="1353.54" cy="835.73" rx="1.23113" ry="1.05337" transform="rotate(-180 1353.54 835.73)" fill="white"/>
<ellipse id="Ellipse 9" cx="1235.81" cy="804.792" rx="1.85474" ry="1.58695" transform="rotate(-180 1235.81 804.792)" fill="white"/>
<ellipse id="Ellipse 10" cx="1207.99" cy="865.493" rx="1.85474" ry="1.58695" transform="rotate(-180 1207.99 865.493)" fill="white"/>
<ellipse id="Ellipse 11" cx="1255.28" cy="909.66" rx="1.85474" ry="1.58695" transform="rotate(-180 1255.28 909.66)" fill="white"/>
<ellipse id="Ellipse 12" cx="1152.87" cy="932.323" rx="0.869411" ry="0.743882" transform="rotate(-180 1152.87 932.323)" fill="white"/>
<ellipse id="Ellipse 24" cx="1404.59" cy="832.296" rx="0.927372" ry="0.793474" transform="rotate(-180 1404.59 832.296)" fill="white"/>
<ellipse id="Ellipse 25" cx="1244.16" cy="683.917" rx="1.85474" ry="1.58695" transform="rotate(-180 1244.16 683.917)" fill="white"/>
<ellipse id="Ellipse 26" cx="1145.85" cy="762.073" rx="1.85474" ry="1.58695" transform="rotate(-180 1145.85 762.073)" fill="white"/>
<ellipse id="Ellipse 27" cx="1289.6" cy="762.073" rx="1.85474" ry="1.58695" transform="rotate(-180 1289.6 762.073)" fill="white"/>
<ellipse id="Ellipse 28" cx="1142.9" cy="846.728" rx="1.10125" ry="0.94225" transform="rotate(-180 1142.9 846.728)" fill="white"/>
</g>
<g id="Stars_3">
<ellipse id="Ellipse 5_2" cx="1302.58" cy="579.315" rx="1.85474" ry="1.58695" transform="rotate(-180 1302.58 579.315)" fill="white"/>
<ellipse id="Ellipse 29_2" cx="1240.45" cy="624.94" rx="1.85474" ry="1.58695" transform="rotate(-180 1240.45 624.94)" fill="white"/>
<ellipse id="Ellipse 30_2" cx="1293.31" cy="659.06" rx="1.85474" ry="1.58695" transform="rotate(-180 1293.31 659.06)" fill="white"/>
<ellipse id="Ellipse 31_2" rx="1.19642" ry="1.04557" transform="matrix(-0.974712 -0.223464 0.298854 -0.954299 1436.91 680.489)" fill="white"/>
<ellipse id="Ellipse 32_2" cx="1427.3" cy="576.142" rx="1.85474" ry="1.58695" transform="rotate(-180 1427.3 576.142)" fill="white"/>
<ellipse id="Ellipse 6_2" cx="1286.51" cy="527.477" rx="3.08951" ry="2.64343" transform="rotate(-180 1286.51 527.477)" fill="white"/>
<ellipse id="Ellipse 7_2" cx="1408.01" cy="552.487" rx="1.21718" ry="1.04143" transform="rotate(-180 1408.01 552.487)" fill="white"/>
<ellipse id="Ellipse 8_2" cx="1353.54" cy="493.484" rx="1.23113" ry="1.05337" transform="rotate(-180 1353.54 493.484)" fill="white"/>
<ellipse id="Ellipse 9_2" cx="1235.81" cy="462.546" rx="1.85474" ry="1.58695" transform="rotate(-180 1235.81 462.546)" fill="white"/>
<ellipse id="Ellipse 10_2" cx="1207.99" cy="523.247" rx="1.85474" ry="1.58695" transform="rotate(-180 1207.99 523.247)" fill="white"/>
<ellipse id="Ellipse 11_2" cx="1255.28" cy="567.414" rx="1.85474" ry="1.58695" transform="rotate(-180 1255.28 567.414)" fill="white"/>
<ellipse id="Ellipse 12_2" cx="1152.87" cy="590.077" rx="0.869411" ry="0.743882" transform="rotate(-180 1152.87 590.077)" fill="white"/>
<ellipse id="Ellipse 24_2" cx="1404.59" cy="490.05" rx="0.927372" ry="0.793474" transform="rotate(-180 1404.59 490.05)" fill="white"/>
<ellipse id="Ellipse 25_2" cx="1244.16" cy="341.671" rx="1.85474" ry="1.58695" transform="rotate(-180 1244.16 341.671)" fill="white"/>
<ellipse id="Ellipse 26_2" cx="1145.85" cy="419.827" rx="1.85474" ry="1.58695" transform="rotate(-180 1145.85 419.827)" fill="white"/>
<ellipse id="Ellipse 27_2" cx="1289.6" cy="419.827" rx="1.85474" ry="1.58695" transform="rotate(-180 1289.6 419.827)" fill="white"/>
<ellipse id="Ellipse 28_2" cx="1142.9" cy="504.482" rx="1.10125" ry="0.94225" transform="rotate(-180 1142.9 504.482)" fill="white"/>
</g>
<g id="Stars_4">
<ellipse id="Ellipse 5_3" cx="1302.58" cy="239.231" rx="1.85474" ry="1.58695" transform="rotate(-180 1302.58 239.231)" fill="white"/>
<ellipse id="Ellipse 29_3" cx="1240.45" cy="284.856" rx="1.85474" ry="1.58695" transform="rotate(-180 1240.45 284.856)" fill="white"/>
<ellipse id="Ellipse 30_3" cx="1293.31" cy="318.976" rx="1.85474" ry="1.58695" transform="rotate(-180 1293.31 318.976)" fill="white"/>
<ellipse id="Ellipse 31_3" rx="1.19642" ry="1.04557" transform="matrix(-0.974712 -0.223464 0.298854 -0.954299 1436.91 340.405)" fill="white"/>
<ellipse id="Ellipse 32_3" cx="1427.3" cy="236.058" rx="1.85474" ry="1.58695" transform="rotate(-180 1427.3 236.058)" fill="white"/>
<ellipse id="Ellipse 6_3" cx="1286.51" cy="187.393" rx="3.08951" ry="2.64343" transform="rotate(-180 1286.51 187.393)" fill="white"/>
<ellipse id="Ellipse 7_3" cx="1408.01" cy="212.403" rx="1.21718" ry="1.04143" transform="rotate(-180 1408.01 212.403)" fill="white"/>
<ellipse id="Ellipse 8_3" cx="1353.54" cy="153.4" rx="1.23113" ry="1.05337" transform="rotate(-180 1353.54 153.4)" fill="white"/>
<ellipse id="Ellipse 9_3" cx="1235.81" cy="122.462" rx="1.85474" ry="1.58695" transform="rotate(-180 1235.81 122.462)" fill="white"/>
<ellipse id="Ellipse 10_3" cx="1207.99" cy="183.163" rx="1.85474" ry="1.58695" transform="rotate(-180 1207.99 183.163)" fill="white"/>
<ellipse id="Ellipse 11_3" cx="1255.28" cy="227.33" rx="1.85474" ry="1.58695" transform="rotate(-180 1255.28 227.33)" fill="white"/>
<ellipse id="Ellipse 12_3" cx="1152.87" cy="249.993" rx="0.869411" ry="0.743882" transform="rotate(-180 1152.87 249.993)" fill="white"/>
<ellipse id="Ellipse 24_3" cx="1404.59" cy="149.966" rx="0.927372" ry="0.793474" transform="rotate(-180 1404.59 149.966)" fill="white"/>
<ellipse id="Ellipse 25_3" cx="1244.16" cy="1.58688" rx="1.85474" ry="1.58695" transform="rotate(-180 1244.16 1.58688)" fill="white"/>
<ellipse id="Ellipse 26_3" cx="1145.85" cy="79.7431" rx="1.85474" ry="1.58695" transform="rotate(-180 1145.85 79.7431)" fill="white"/>
<ellipse id="Ellipse 27_3" cx="1289.6" cy="79.7431" rx="1.85474" ry="1.58695" transform="rotate(-180 1289.6 79.7431)" fill="white"/>
<ellipse id="Ellipse 28_3" cx="1142.9" cy="164.398" rx="1.10125" ry="0.94225" transform="rotate(-180 1142.9 164.398)" fill="white"/>
</g>
<g id="Stars_5">
<ellipse id="Ellipse 1" cx="991.708" cy="848.959" rx="1.85474" ry="1.58695" transform="rotate(-180 991.708 848.959)" fill="white"/>
<ellipse id="Ellipse 2" cx="901.868" cy="885.757" rx="3.12988" ry="2.67797" transform="rotate(-180 901.868 885.757)" fill="white"/>
<ellipse id="Ellipse 3" cx="1020.4" cy="913.181" rx="1.44902" ry="1.2398" transform="rotate(-180 1020.4 913.181)" fill="white"/>
<ellipse id="Ellipse 4" cx="904.129" cy="930.737" rx="0.869411" ry="0.743882" transform="rotate(-180 904.129 930.737)" fill="white"/>
<ellipse id="Ellipse 5_4" cx="731.581" cy="921.561" rx="1.85474" ry="1.58695" transform="rotate(-180 731.581 921.561)" fill="white"/>
<ellipse id="Ellipse 29_4" cx="669.446" cy="967.186" rx="1.85474" ry="1.58695" transform="rotate(-180 669.446 967.186)" fill="white"/>
<ellipse id="Ellipse 30_4" cx="722.307" cy="1001.31" rx="1.85474" ry="1.58695" transform="rotate(-180 722.307 1001.31)" fill="white"/>
<ellipse id="Ellipse 31_4" rx="1.19642" ry="1.04557" transform="matrix(-0.974712 -0.223464 0.298854 -0.954299 865.914 1022.73)" fill="white"/>
<ellipse id="Ellipse 32_4" cx="856.303" cy="918.388" rx="1.85474" ry="1.58695" transform="rotate(-180 856.303 918.388)" fill="white"/>
<ellipse id="Ellipse 6_4" cx="715.508" cy="869.723" rx="3.08951" ry="2.64343" transform="rotate(-180 715.508 869.723)" fill="white"/>
<ellipse id="Ellipse 7_4" cx="837.011" cy="894.733" rx="1.21718" ry="1.04143" transform="rotate(-180 837.011 894.733)" fill="white"/>
<ellipse id="Ellipse 8_4" cx="782.542" cy="835.73" rx="1.23113" ry="1.05337" transform="rotate(-180 782.542 835.73)" fill="white"/>
<ellipse id="Ellipse 9_4" cx="664.809" cy="804.792" rx="1.85474" ry="1.58695" transform="rotate(-180 664.809 804.792)" fill="white"/>
<ellipse id="Ellipse 10_4" cx="636.989" cy="865.493" rx="1.85474" ry="1.58695" transform="rotate(-180 636.989 865.493)" fill="white"/>
<ellipse id="Ellipse 11_4" cx="684.284" cy="909.66" rx="1.85474" ry="1.58695" transform="rotate(-180 684.284 909.66)" fill="white"/>
<ellipse id="Ellipse 12_4" cx="581.867" cy="932.323" rx="0.869411" ry="0.743882" transform="rotate(-180 581.867 932.323)" fill="white"/>
<ellipse id="Ellipse 13" cx="899.434" cy="833.09" rx="1.85474" ry="1.58695" transform="rotate(-180 899.434 833.09)" fill="white"/>
<ellipse id="Ellipse 14" cx="979.42" cy="896.766" rx="0.695529" ry="0.595105" transform="rotate(-180 979.42 896.766)" fill="white"/>
<ellipse id="Ellipse 15" cx="1077.95" cy="824.362" rx="1.39106" ry="1.19021" transform="rotate(-180 1077.95 824.362)" fill="white"/>
<ellipse id="Ellipse 16" cx="984.753" cy="753.742" rx="1.85474" ry="1.58695" transform="rotate(-180 984.753 753.742)" fill="white"/>
<ellipse id="Ellipse 17" cx="1097.89" cy="727.161" rx="1.85474" ry="1.58695" transform="rotate(-180 1097.89 727.161)" fill="white"/>
<ellipse id="Ellipse 18" cx="1142.23" cy="796.433" rx="1.56494" ry="1.33899" transform="rotate(-180 1142.23 796.433)" fill="white"/>
<ellipse id="Ellipse 19" cx="1079.34" cy="885.458" rx="0.927372" ry="0.793474" transform="rotate(-180 1079.34 885.458)" fill="white"/>
<ellipse id="Ellipse 20" cx="1130.29" cy="920.718" rx="2.84008" ry="2.43001" transform="rotate(-180 1130.29 920.718)" fill="white"/>
<ellipse id="Ellipse 21" cx="1048.86" cy="959.549" rx="1.73882" ry="1.48776" transform="rotate(-180 1048.86 959.549)" fill="white"/>
<ellipse id="Ellipse 22" cx="1133.57" cy="974.104" rx="3.27478" ry="2.80195" transform="rotate(-180 1133.57 974.104)" fill="white"/>
<ellipse id="Ellipse 23" cx="987.478" cy="1009.39" rx="0.985333" ry="0.843066" transform="rotate(-180 987.478 1009.39)" fill="white"/>
<ellipse id="Ellipse 24_4" cx="833.59" cy="832.296" rx="0.927372" ry="0.793474" transform="rotate(-180 833.59 832.296)" fill="white"/>
<ellipse id="Ellipse 25_4" cx="673.155" cy="683.917" rx="1.85474" ry="1.58695" transform="rotate(-180 673.155 683.917)" fill="white"/>
<ellipse id="Ellipse 26_4" cx="574.854" cy="762.073" rx="1.85474" ry="1.58695" transform="rotate(-180 574.854 762.073)" fill="white"/>
<ellipse id="Ellipse 27_4" cx="718.596" cy="762.073" rx="1.85474" ry="1.58695" transform="rotate(-180 718.596 762.073)" fill="white"/>
<ellipse id="Ellipse 28_4" cx="571.899" cy="846.728" rx="1.10125" ry="0.94225" transform="rotate(-180 571.899 846.728)" fill="white"/>
</g>
<g id="Stars_6">
<ellipse id="Ellipse 1_2" cx="991.708" cy="506.713" rx="1.85474" ry="1.58695" transform="rotate(-180 991.708 506.713)" fill="white"/>
<ellipse id="Ellipse 2_2" cx="901.868" cy="543.51" rx="3.12988" ry="2.67797" transform="rotate(-180 901.868 543.51)" fill="white"/>
<ellipse id="Ellipse 3_2" cx="1020.4" cy="570.935" rx="1.44902" ry="1.2398" transform="rotate(-180 1020.4 570.935)" fill="white"/>
<ellipse id="Ellipse 4_2" cx="904.129" cy="588.49" rx="0.869411" ry="0.743882" transform="rotate(-180 904.129 588.49)" fill="white"/>
<ellipse id="Ellipse 5_5" cx="731.581" cy="579.315" rx="1.85474" ry="1.58695" transform="rotate(-180 731.581 579.315)" fill="white"/>
<ellipse id="Ellipse 29_5" cx="669.446" cy="624.94" rx="1.85474" ry="1.58695" transform="rotate(-180 669.446 624.94)" fill="white"/>
<ellipse id="Ellipse 30_5" cx="722.307" cy="659.06" rx="1.85474" ry="1.58695" transform="rotate(-180 722.307 659.06)" fill="white"/>
<ellipse id="Ellipse 31_5" rx="1.19642" ry="1.04557" transform="matrix(-0.974712 -0.223464 0.298854 -0.954299 865.914 680.489)" fill="white"/>
<ellipse id="Ellipse 32_5" cx="856.303" cy="576.142" rx="1.85474" ry="1.58695" transform="rotate(-180 856.303 576.142)" fill="white"/>
<ellipse id="Ellipse 6_5" cx="715.508" cy="527.477" rx="3.08951" ry="2.64343" transform="rotate(-180 715.508 527.477)" fill="white"/>
<ellipse id="Ellipse 7_5" cx="837.011" cy="552.487" rx="1.21718" ry="1.04143" transform="rotate(-180 837.011 552.487)" fill="white"/>
<ellipse id="Ellipse 8_5" cx="782.542" cy="493.484" rx="1.23113" ry="1.05337" transform="rotate(-180 782.542 493.484)" fill="white"/>
<ellipse id="Ellipse 9_5" cx="664.809" cy="462.546" rx="1.85474" ry="1.58695" transform="rotate(-180 664.809 462.546)" fill="white"/>
<ellipse id="Ellipse 10_5" cx="636.989" cy="523.247" rx="1.85474" ry="1.58695" transform="rotate(-180 636.989 523.247)" fill="white"/>
<ellipse id="Ellipse 11_5" cx="684.284" cy="567.414" rx="1.85474" ry="1.58695" transform="rotate(-180 684.284 567.414)" fill="white"/>
<ellipse id="Ellipse 12_5" cx="581.867" cy="590.077" rx="0.869411" ry="0.743882" transform="rotate(-180 581.867 590.077)" fill="white"/>
<ellipse id="Ellipse 13_2" cx="899.434" cy="490.844" rx="1.85474" ry="1.58695" transform="rotate(-180 899.434 490.844)" fill="white"/>
<ellipse id="Ellipse 14_2" cx="979.42" cy="554.52" rx="0.695529" ry="0.595105" transform="rotate(-180 979.42 554.52)" fill="white"/>
<ellipse id="Ellipse 15_2" cx="1077.95" cy="482.115" rx="1.39106" ry="1.19021" transform="rotate(-180 1077.95 482.115)" fill="white"/>
<ellipse id="Ellipse 16_2" cx="984.753" cy="411.496" rx="1.85474" ry="1.58695" transform="rotate(-180 984.753 411.496)" fill="white"/>
<ellipse id="Ellipse 17_2" cx="1097.89" cy="384.915" rx="1.85474" ry="1.58695" transform="rotate(-180 1097.89 384.915)" fill="white"/>
<ellipse id="Ellipse 18_2" cx="1142.23" cy="454.187" rx="1.56494" ry="1.33899" transform="rotate(-180 1142.23 454.187)" fill="white"/>
<ellipse id="Ellipse 19_2" cx="1079.34" cy="543.212" rx="0.927372" ry="0.793474" transform="rotate(-180 1079.34 543.212)" fill="white"/>
<ellipse id="Ellipse 20_2" cx="1130.29" cy="578.472" rx="2.84008" ry="2.43001" transform="rotate(-180 1130.29 578.472)" fill="white"/>
<ellipse id="Ellipse 21_2" cx="1048.86" cy="617.303" rx="1.73882" ry="1.48776" transform="rotate(-180 1048.86 617.303)" fill="white"/>
<ellipse id="Ellipse 22_2" cx="1133.57" cy="631.858" rx="3.27478" ry="2.80195" transform="rotate(-180 1133.57 631.858)" fill="white"/>
<ellipse id="Ellipse 23_2" cx="987.478" cy="667.143" rx="0.985333" ry="0.843066" transform="rotate(-180 987.478 667.143)" fill="white"/>
<ellipse id="Ellipse 24_5" cx="833.59" cy="490.05" rx="0.927372" ry="0.793474" transform="rotate(-180 833.59 490.05)" fill="white"/>
<ellipse id="Ellipse 25_5" cx="673.155" cy="341.671" rx="1.85474" ry="1.58695" transform="rotate(-180 673.155 341.671)" fill="white"/>
<ellipse id="Ellipse 26_5" cx="574.854" cy="419.827" rx="1.85474" ry="1.58695" transform="rotate(-180 574.854 419.827)" fill="white"/>
<ellipse id="Ellipse 27_5" cx="718.596" cy="419.827" rx="1.85474" ry="1.58695" transform="rotate(-180 718.596 419.827)" fill="white"/>
<ellipse id="Ellipse 28_5" cx="571.899" cy="504.482" rx="1.10125" ry="0.94225" transform="rotate(-180 571.899 504.482)" fill="white"/>
</g>
<g id="Stars_7">
<ellipse id="Ellipse 1_3" cx="991.708" cy="166.629" rx="1.85474" ry="1.58695" transform="rotate(-180 991.708 166.629)" fill="white"/>
<ellipse id="Ellipse 2_3" cx="901.868" cy="203.427" rx="3.12988" ry="2.67797" transform="rotate(-180 901.868 203.427)" fill="white"/>
<ellipse id="Ellipse 3_3" cx="1020.4" cy="230.851" rx="1.44902" ry="1.2398" transform="rotate(-180 1020.4 230.851)" fill="white"/>
<ellipse id="Ellipse 4_3" cx="904.129" cy="248.407" rx="0.869411" ry="0.743882" transform="rotate(-180 904.129 248.407)" fill="white"/>
<ellipse id="Ellipse 5_6" cx="731.581" cy="239.231" rx="1.85474" ry="1.58695" transform="rotate(-180 731.581 239.231)" fill="white"/>
<ellipse id="Ellipse 29_6" cx="669.446" cy="284.856" rx="1.85474" ry="1.58695" transform="rotate(-180 669.446 284.856)" fill="white"/>
<ellipse id="Ellipse 30_6" cx="722.307" cy="318.976" rx="1.85474" ry="1.58695" transform="rotate(-180 722.307 318.976)" fill="white"/>
<ellipse id="Ellipse 31_6" rx="1.19642" ry="1.04557" transform="matrix(-0.974712 -0.223464 0.298854 -0.954299 865.914 340.405)" fill="white"/>
<ellipse id="Ellipse 32_6" cx="856.303" cy="236.058" rx="1.85474" ry="1.58695" transform="rotate(-180 856.303 236.058)" fill="white"/>
<ellipse id="Ellipse 6_6" cx="715.508" cy="187.393" rx="3.08951" ry="2.64343" transform="rotate(-180 715.508 187.393)" fill="white"/>
<ellipse id="Ellipse 7_6" cx="837.011" cy="212.403" rx="1.21718" ry="1.04143" transform="rotate(-180 837.011 212.403)" fill="white"/>
<ellipse id="Ellipse 8_6" cx="782.542" cy="153.4" rx="1.23113" ry="1.05337" transform="rotate(-180 782.542 153.4)" fill="white"/>
<ellipse id="Ellipse 9_6" cx="664.809" cy="122.462" rx="1.85474" ry="1.58695" transform="rotate(-180 664.809 122.462)" fill="white"/>
<ellipse id="Ellipse 10_6" cx="636.989" cy="183.163" rx="1.85474" ry="1.58695" transform="rotate(-180 636.989 183.163)" fill="white"/>
<ellipse id="Ellipse 11_6" cx="684.284" cy="227.33" rx="1.85474" ry="1.58695" transform="rotate(-180 684.284 227.33)" fill="white"/>
<ellipse id="Ellipse 12_6" cx="581.867" cy="249.993" rx="0.869411" ry="0.743882" transform="rotate(-180 581.867 249.993)" fill="white"/>
<ellipse id="Ellipse 13_3" cx="899.434" cy="150.76" rx="1.85474" ry="1.58695" transform="rotate(-180 899.434 150.76)" fill="white"/>
<ellipse id="Ellipse 14_3" cx="979.42" cy="214.436" rx="0.695529" ry="0.595105" transform="rotate(-180 979.42 214.436)" fill="white"/>
<ellipse id="Ellipse 15_3" cx="1077.95" cy="142.031" rx="1.39106" ry="1.19021" transform="rotate(-180 1077.95 142.031)" fill="white"/>
<ellipse id="Ellipse 16_3" cx="984.753" cy="71.4121" rx="1.85474" ry="1.58695" transform="rotate(-180 984.753 71.4121)" fill="white"/>
<ellipse id="Ellipse 17_3" cx="1097.89" cy="44.831" rx="1.85474" ry="1.58695" transform="rotate(-180 1097.89 44.831)" fill="white"/>
<ellipse id="Ellipse 18_3" cx="1142.23" cy="114.103" rx="1.56494" ry="1.33899" transform="rotate(-180 1142.23 114.103)" fill="white"/>
<ellipse id="Ellipse 19_3" cx="1079.34" cy="203.128" rx="0.927372" ry="0.793474" transform="rotate(-180 1079.34 203.128)" fill="white"/>
<ellipse id="Ellipse 20_3" cx="1130.29" cy="238.388" rx="2.84008" ry="2.43001" transform="rotate(-180 1130.29 238.388)" fill="white"/>
<ellipse id="Ellipse 21_3" cx="1048.86" cy="277.219" rx="1.73882" ry="1.48776" transform="rotate(-180 1048.86 277.219)" fill="white"/>
<ellipse id="Ellipse 22_3" cx="1133.57" cy="291.774" rx="3.27478" ry="2.80195" transform="rotate(-180 1133.57 291.774)" fill="white"/>
<ellipse id="Ellipse 23_3" cx="987.478" cy="327.059" rx="0.985333" ry="0.843066" transform="rotate(-180 987.478 327.059)" fill="white"/>
<ellipse id="Ellipse 24_6" cx="833.59" cy="149.966" rx="0.927372" ry="0.793474" transform="rotate(-180 833.59 149.966)" fill="white"/>
<ellipse id="Ellipse 25_6" cx="673.155" cy="1.58688" rx="1.85474" ry="1.58695" transform="rotate(-180 673.155 1.58688)" fill="white"/>
<ellipse id="Ellipse 26_6" cx="574.854" cy="79.7431" rx="1.85474" ry="1.58695" transform="rotate(-180 574.854 79.7431)" fill="white"/>
<ellipse id="Ellipse 27_6" cx="718.596" cy="79.7431" rx="1.85474" ry="1.58695" transform="rotate(-180 718.596 79.7431)" fill="white"/>
<ellipse id="Ellipse 28_6" cx="571.899" cy="164.398" rx="1.10125" ry="0.94225" transform="rotate(-180 571.899 164.398)" fill="white"/>
</g>
<g id="Stars_8">
<ellipse id="Ellipse 1_4" cx="420.911" cy="848.959" rx="1.85474" ry="1.58695" transform="rotate(-180 420.911 848.959)" fill="white"/>
<ellipse id="Ellipse 2_4" cx="331.071" cy="885.757" rx="3.12988" ry="2.67797" transform="rotate(-180 331.071 885.757)" fill="white"/>
<ellipse id="Ellipse 3_4" cx="449.602" cy="913.181" rx="1.44902" ry="1.2398" transform="rotate(-180 449.602 913.181)" fill="white"/>
<ellipse id="Ellipse 4_4" cx="333.332" cy="930.737" rx="0.869411" ry="0.743882" transform="rotate(-180 333.332 930.737)" fill="white"/>
<ellipse id="Ellipse 5_7" cx="160.784" cy="921.561" rx="1.85474" ry="1.58695" transform="rotate(-180 160.784 921.561)" fill="white"/>
<ellipse id="Ellipse 29_7" cx="98.6492" cy="967.186" rx="1.85474" ry="1.58695" transform="rotate(-180 98.6492 967.186)" fill="white"/>
<ellipse id="Ellipse 30_7" cx="151.51" cy="1001.31" rx="1.85474" ry="1.58695" transform="rotate(-180 151.51 1001.31)" fill="white"/>
<ellipse id="Ellipse 31_7" rx="1.19642" ry="1.04557" transform="matrix(-0.974712 -0.223464 0.298854 -0.954299 295.117 1022.73)" fill="white"/>
<ellipse id="Ellipse 32_7" cx="285.507" cy="918.388" rx="1.85474" ry="1.58695" transform="rotate(-180 285.507 918.388)" fill="white"/>
<ellipse id="Ellipse 6_7" cx="144.711" cy="869.723" rx="3.08951" ry="2.64343" transform="rotate(-180 144.711 869.723)" fill="white"/>
<ellipse id="Ellipse 7_7" cx="266.214" cy="894.733" rx="1.21718" ry="1.04143" transform="rotate(-180 266.214 894.733)" fill="white"/>
<ellipse id="Ellipse 8_7" cx="211.745" cy="835.73" rx="1.23113" ry="1.05337" transform="rotate(-180 211.745 835.73)" fill="white"/>
<ellipse id="Ellipse 9_7" cx="94.0124" cy="804.792" rx="1.85474" ry="1.58695" transform="rotate(-180 94.0124 804.792)" fill="white"/>
<ellipse id="Ellipse 10_7" cx="66.1921" cy="865.493" rx="1.85474" ry="1.58695" transform="rotate(-180 66.1921 865.493)" fill="white"/>
<ellipse id="Ellipse 11_7" cx="113.487" cy="909.66" rx="1.85474" ry="1.58695" transform="rotate(-180 113.487 909.66)" fill="white"/>
<ellipse id="Ellipse 12_7" cx="11.07" cy="932.323" rx="0.869411" ry="0.743882" transform="rotate(-180 11.07 932.323)" fill="white"/>
<ellipse id="Ellipse 13_4" cx="328.637" cy="833.09" rx="1.85474" ry="1.58695" transform="rotate(-180 328.637 833.09)" fill="white"/>
<ellipse id="Ellipse 14_4" cx="408.623" cy="896.766" rx="0.695529" ry="0.595105" transform="rotate(-180 408.623 896.766)" fill="white"/>
<ellipse id="Ellipse 15_4" cx="507.156" cy="824.362" rx="1.39106" ry="1.19021" transform="rotate(-180 507.156 824.362)" fill="white"/>
<ellipse id="Ellipse 16_4" cx="413.956" cy="753.742" rx="1.85474" ry="1.58695" transform="rotate(-180 413.956 753.742)" fill="white"/>
<ellipse id="Ellipse 17_4" cx="527.094" cy="727.161" rx="1.85474" ry="1.58695" transform="rotate(-180 527.094 727.161)" fill="white"/>
<ellipse id="Ellipse 18_4" cx="571.435" cy="796.433" rx="1.56494" ry="1.33899" transform="rotate(-180 571.435 796.433)" fill="white"/>
<ellipse id="Ellipse 19_4" cx="508.547" cy="885.458" rx="0.927372" ry="0.793474" transform="rotate(-180 508.547 885.458)" fill="white"/>
<ellipse id="Ellipse 20_4" cx="559.496" cy="920.718" rx="2.84008" ry="2.43001" transform="rotate(-180 559.496 920.718)" fill="white"/>
<ellipse id="Ellipse 21_4" cx="478.06" cy="959.549" rx="1.73882" ry="1.48776" transform="rotate(-180 478.06 959.549)" fill="white"/>
<ellipse id="Ellipse 22_4" cx="562.77" cy="974.104" rx="3.27478" ry="2.80195" transform="rotate(-180 562.77 974.104)" fill="white"/>
<ellipse id="Ellipse 23_4" cx="416.681" cy="1009.39" rx="0.985333" ry="0.843066" transform="rotate(-180 416.681 1009.39)" fill="white"/>
<ellipse id="Ellipse 24_7" cx="262.793" cy="832.296" rx="0.927372" ry="0.793474" transform="rotate(-180 262.793 832.296)" fill="white"/>
<ellipse id="Ellipse 25_7" cx="102.358" cy="683.917" rx="1.85474" ry="1.58695" transform="rotate(-180 102.358 683.917)" fill="white"/>
<ellipse id="Ellipse 26_7" cx="4.05737" cy="762.073" rx="1.85474" ry="1.58695" transform="rotate(-180 4.05737 762.073)" fill="white"/>
<ellipse id="Ellipse 27_7" cx="147.8" cy="762.073" rx="1.85474" ry="1.58695" transform="rotate(-180 147.8 762.073)" fill="white"/>
<ellipse id="Ellipse 28_7" cx="1.10187" cy="846.728" rx="1.10125" ry="0.94225" transform="rotate(-180 1.10187 846.728)" fill="white"/>
</g>
<g id="Stars_9">
<ellipse id="Ellipse 1_5" cx="420.911" cy="506.713" rx="1.85474" ry="1.58695" transform="rotate(-180 420.911 506.713)" fill="white"/>
<ellipse id="Ellipse 2_5" cx="331.071" cy="543.51" rx="3.12988" ry="2.67797" transform="rotate(-180 331.071 543.51)" fill="white"/>
<ellipse id="Ellipse 3_5" cx="449.602" cy="570.935" rx="1.44902" ry="1.2398" transform="rotate(-180 449.602 570.935)" fill="white"/>
<ellipse id="Ellipse 4_5" cx="333.332" cy="588.49" rx="0.869411" ry="0.743882" transform="rotate(-180 333.332 588.49)" fill="white"/>
<ellipse id="Ellipse 5_8" cx="160.784" cy="579.315" rx="1.85474" ry="1.58695" transform="rotate(-180 160.784 579.315)" fill="white"/>
<ellipse id="Ellipse 29_8" cx="98.6492" cy="624.94" rx="1.85474" ry="1.58695" transform="rotate(-180 98.6492 624.94)" fill="white"/>
<ellipse id="Ellipse 30_8" cx="151.51" cy="659.06" rx="1.85474" ry="1.58695" transform="rotate(-180 151.51 659.06)" fill="white"/>
<ellipse id="Ellipse 31_8" rx="1.19642" ry="1.04557" transform="matrix(-0.974712 -0.223464 0.298854 -0.954299 295.117 680.489)" fill="white"/>
<ellipse id="Ellipse 32_8" cx="285.507" cy="576.142" rx="1.85474" ry="1.58695" transform="rotate(-180 285.507 576.142)" fill="white"/>
<ellipse id="Ellipse 6_8" cx="144.711" cy="527.477" rx="3.08951" ry="2.64343" transform="rotate(-180 144.711 527.477)" fill="white"/>
<ellipse id="Ellipse 7_8" cx="266.214" cy="552.487" rx="1.21718" ry="1.04143" transform="rotate(-180 266.214 552.487)" fill="white"/>
<ellipse id="Ellipse 8_8" cx="211.745" cy="493.484" rx="1.23113" ry="1.05337" transform="rotate(-180 211.745 493.484)" fill="white"/>
<ellipse id="Ellipse 9_8" cx="94.0124" cy="462.546" rx="1.85474" ry="1.58695" transform="rotate(-180 94.0124 462.546)" fill="white"/>
<ellipse id="Ellipse 10_8" cx="66.1921" cy="523.247" rx="1.85474" ry="1.58695" transform="rotate(-180 66.1921 523.247)" fill="white"/>
<ellipse id="Ellipse 11_8" cx="113.487" cy="567.414" rx="1.85474" ry="1.58695" transform="rotate(-180 113.487 567.414)" fill="white"/>
<ellipse id="Ellipse 12_8" cx="11.07" cy="590.077" rx="0.869411" ry="0.743882" transform="rotate(-180 11.07 590.077)" fill="white"/>
<ellipse id="Ellipse 13_5" cx="328.637" cy="490.844" rx="1.85474" ry="1.58695" transform="rotate(-180 328.637 490.844)" fill="white"/>
<ellipse id="Ellipse 14_5" cx="408.623" cy="554.52" rx="0.695529" ry="0.595105" transform="rotate(-180 408.623 554.52)" fill="white"/>
<ellipse id="Ellipse 15_5" cx="507.156" cy="482.115" rx="1.39106" ry="1.19021" transform="rotate(-180 507.156 482.115)" fill="white"/>
<ellipse id="Ellipse 16_5" cx="413.956" cy="411.496" rx="1.85474" ry="1.58695" transform="rotate(-180 413.956 411.496)" fill="white"/>
<ellipse id="Ellipse 17_5" cx="527.094" cy="384.915" rx="1.85474" ry="1.58695" transform="rotate(-180 527.094 384.915)" fill="white"/>
<ellipse id="Ellipse 18_5" cx="571.435" cy="454.187" rx="1.56494" ry="1.33899" transform="rotate(-180 571.435 454.187)" fill="white"/>
<ellipse id="Ellipse 19_5" cx="508.547" cy="543.212" rx="0.927372" ry="0.793474" transform="rotate(-180 508.547 543.212)" fill="white"/>
<ellipse id="Ellipse 20_5" cx="559.496" cy="578.472" rx="2.84008" ry="2.43001" transform="rotate(-180 559.496 578.472)" fill="white"/>
<ellipse id="Ellipse 21_5" cx="478.06" cy="617.303" rx="1.73882" ry="1.48776" transform="rotate(-180 478.06 617.303)" fill="white"/>
<ellipse id="Ellipse 22_5" cx="562.77" cy="631.858" rx="3.27478" ry="2.80195" transform="rotate(-180 562.77 631.858)" fill="white"/>
<ellipse id="Ellipse 23_5" cx="416.681" cy="667.143" rx="0.985333" ry="0.843066" transform="rotate(-180 416.681 667.143)" fill="white"/>
<ellipse id="Ellipse 24_8" cx="262.793" cy="490.05" rx="0.927372" ry="0.793474" transform="rotate(-180 262.793 490.05)" fill="white"/>
<ellipse id="Ellipse 25_8" cx="102.358" cy="341.671" rx="1.85474" ry="1.58695" transform="rotate(-180 102.358 341.671)" fill="white"/>
<ellipse id="Ellipse 26_8" cx="4.05737" cy="419.827" rx="1.85474" ry="1.58695" transform="rotate(-180 4.05737 419.827)" fill="white"/>
<ellipse id="Ellipse 27_8" cx="147.8" cy="419.827" rx="1.85474" ry="1.58695" transform="rotate(-180 147.8 419.827)" fill="white"/>
<ellipse id="Ellipse 28_8" cx="1.10187" cy="504.482" rx="1.10125" ry="0.94225" transform="rotate(-180 1.10187 504.482)" fill="white"/>
</g>
<g id="Stars_10">
<ellipse id="Ellipse 1_6" cx="420.911" cy="166.629" rx="1.85474" ry="1.58695" transform="rotate(-180 420.911 166.629)" fill="white"/>
<ellipse id="Ellipse 2_6" cx="331.071" cy="203.427" rx="3.12988" ry="2.67797" transform="rotate(-180 331.071 203.427)" fill="white"/>
<ellipse id="Ellipse 3_6" cx="449.602" cy="230.851" rx="1.44902" ry="1.2398" transform="rotate(-180 449.602 230.851)" fill="white"/>
<ellipse id="Ellipse 4_6" cx="333.332" cy="248.407" rx="0.869411" ry="0.743882" transform="rotate(-180 333.332 248.407)" fill="white"/>
<ellipse id="Ellipse 5_9" cx="160.784" cy="239.231" rx="1.85474" ry="1.58695" transform="rotate(-180 160.784 239.231)" fill="white"/>
<ellipse id="Ellipse 29_9" cx="98.6492" cy="284.856" rx="1.85474" ry="1.58695" transform="rotate(-180 98.6492 284.856)" fill="white"/>
<ellipse id="Ellipse 30_9" cx="151.51" cy="318.976" rx="1.85474" ry="1.58695" transform="rotate(-180 151.51 318.976)" fill="white"/>
<ellipse id="Ellipse 31_9" rx="1.19642" ry="1.04557" transform="matrix(-0.974712 -0.223464 0.298854 -0.954299 295.117 340.405)" fill="white"/>
<ellipse id="Ellipse 32_9" cx="285.507" cy="236.058" rx="1.85474" ry="1.58695" transform="rotate(-180 285.507 236.058)" fill="white"/>
<ellipse id="Ellipse 6_9" cx="144.711" cy="187.393" rx="3.08951" ry="2.64343" transform="rotate(-180 144.711 187.393)" fill="white"/>
<ellipse id="Ellipse 7_9" cx="266.214" cy="212.403" rx="1.21718" ry="1.04143" transform="rotate(-180 266.214 212.403)" fill="white"/>
<ellipse id="Ellipse 8_9" cx="211.745" cy="153.4" rx="1.23113" ry="1.05337" transform="rotate(-180 211.745 153.4)" fill="white"/>
<ellipse id="Ellipse 9_9" cx="94.0124" cy="122.462" rx="1.85474" ry="1.58695" transform="rotate(-180 94.0124 122.462)" fill="white"/>
<ellipse id="Ellipse 10_9" cx="66.1921" cy="183.163" rx="1.85474" ry="1.58695" transform="rotate(-180 66.1921 183.163)" fill="white"/>
<ellipse id="Ellipse 11_9" cx="113.487" cy="227.33" rx="1.85474" ry="1.58695" transform="rotate(-180 113.487 227.33)" fill="white"/>
<ellipse id="Ellipse 12_9" cx="11.07" cy="249.993" rx="0.869411" ry="0.743882" transform="rotate(-180 11.07 249.993)" fill="white"/>
<ellipse id="Ellipse 13_6" cx="328.637" cy="150.76" rx="1.85474" ry="1.58695" transform="rotate(-180 328.637 150.76)" fill="white"/>
<ellipse id="Ellipse 14_6" cx="408.623" cy="214.436" rx="0.695529" ry="0.595105" transform="rotate(-180 408.623 214.436)" fill="white"/>
<ellipse id="Ellipse 15_6" cx="507.156" cy="142.031" rx="1.39106" ry="1.19021" transform="rotate(-180 507.156 142.031)" fill="white"/>
<ellipse id="Ellipse 16_6" cx="413.956" cy="71.4121" rx="1.85474" ry="1.58695" transform="rotate(-180 413.956 71.4121)" fill="white"/>
<ellipse id="Ellipse 17_6" cx="527.094" cy="44.831" rx="1.85474" ry="1.58695" transform="rotate(-180 527.094 44.831)" fill="white"/>
<ellipse id="Ellipse 18_6" cx="571.435" cy="114.103" rx="1.56494" ry="1.33899" transform="rotate(-180 571.435 114.103)" fill="white"/>
<ellipse id="Ellipse 19_6" cx="508.547" cy="203.128" rx="0.927372" ry="0.793474" transform="rotate(-180 508.547 203.128)" fill="white"/>
<ellipse id="Ellipse 20_6" cx="559.496" cy="238.388" rx="2.84008" ry="2.43001" transform="rotate(-180 559.496 238.388)" fill="white"/>
<ellipse id="Ellipse 21_6" cx="478.06" cy="277.219" rx="1.73882" ry="1.48776" transform="rotate(-180 478.06 277.219)" fill="white"/>
<ellipse id="Ellipse 22_6" cx="562.77" cy="291.774" rx="3.27478" ry="2.80195" transform="rotate(-180 562.77 291.774)" fill="white"/>
<ellipse id="Ellipse 23_6" cx="416.681" cy="327.059" rx="0.985333" ry="0.843066" transform="rotate(-180 416.681 327.059)" fill="white"/>
<ellipse id="Ellipse 24_9" cx="262.793" cy="149.966" rx="0.927372" ry="0.793474" transform="rotate(-180 262.793 149.966)" fill="white"/>
<ellipse id="Ellipse 25_9" cx="102.358" cy="1.58688" rx="1.85474" ry="1.58695" transform="rotate(-180 102.358 1.58688)" fill="white"/>
<ellipse id="Ellipse 26_9" cx="4.05737" cy="79.7431" rx="1.85474" ry="1.58695" transform="rotate(-180 4.05737 79.7431)" fill="white"/>
<ellipse id="Ellipse 27_9" cx="147.8" cy="79.7431" rx="1.85474" ry="1.58695" transform="rotate(-180 147.8 79.7431)" fill="white"/>
<ellipse id="Ellipse 28_9" cx="1.10187" cy="164.398" rx="1.10125" ry="0.94225" transform="rotate(-180 1.10187 164.398)" fill="white"/>
</g>
</g>
</svg>
