<?xml version="1.0" encoding="UTF-8"?>
<svg xmlns="http://www.w3.org/2000/svg" xmlns:xlink="http://www.w3.org/1999/xlink" width="375pt" height="374.999991pt" viewBox="0 0 375 374.999991" version="1.2">
<g id="surface1">
<path style=" stroke:none;fill-rule:nonzero;fill:rgb(100%,100%,100%);fill-opacity:1;" d="M 316.808594 103.449219 C 316.808594 78.445312 296.554688 58.191406 271.550781 58.191406 C 259.050781 58.191406 247.734375 63.265625 239.550781 71.449219 L 96.984375 213.363281 L 161.636719 278.015625 L 303.550781 135.449219 C 311.734375 127.265625 316.808594 115.949219 316.808594 103.449219 "/>
<path style=" stroke:none;fill-rule:nonzero;fill:rgb(10.5896%,20.779419%,34.118652%);fill-opacity:1;" d="M 316.808594 103.449219 C 316.808594 128.453125 296.554688 148.707031 271.550781 148.707031 C 246.546875 148.707031 226.292969 128.453125 226.292969 103.449219 C 226.292969 78.445312 246.546875 58.191406 271.550781 58.191406 C 296.554688 58.191406 316.808594 78.445312 316.808594 103.449219 "/>
<path style=" stroke:none;fill-rule:nonzero;fill:rgb(100%,100%,100%);fill-opacity:1;" d="M 103.449219 161.636719 L 0 58.191406 L 58.191406 0 L 161.636719 103.449219 L 103.449219 161.636719 "/>
<path style=" stroke:none;fill-rule:nonzero;fill:rgb(10.5896%,20.779419%,34.118652%);fill-opacity:1;" d="M 113.148438 287.714844 L 87.285156 261.851562 L 116.378906 232.757812 L 142.242188 258.621094 L 113.148438 287.714844 "/>
<path style=" stroke:none;fill-rule:nonzero;fill:rgb(100%,100%,100%);fill-opacity:1;" d="M 96.984375 375 L 0 278.015625 L 9.699219 268.320312 C 36.46875 241.546875 79.910156 241.546875 106.679688 268.320312 C 133.453125 295.089844 133.453125 338.53125 106.679688 365.300781 L 96.984375 375 "/>
<path style=" stroke:none;fill-rule:nonzero;fill:rgb(10.5896%,20.779419%,34.118652%);fill-opacity:1;" d="M 109.230469 268.320312 C 108.800781 267.890625 108.347656 267.535156 107.917969 267.132812 C 112.894531 293.042969 105.34375 320.851562 85.316406 340.90625 L 75.363281 350.855469 L 99.535156 375 L 109.230469 365.300781 C 136.003906 338.53125 136.003906 295.089844 109.230469 268.320312 "/>
<path style=" stroke:none;fill-rule:nonzero;fill:rgb(100%,100%,100%);fill-opacity:1;" d="M 271.550781 213.363281 L 375 316.808594 L 316.808594 375 L 213.363281 271.550781 L 271.550781 213.363281 "/>
<path style=" stroke:none;fill-rule:nonzero;fill:rgb(100%,100%,100%);fill-opacity:1;" d="M 232.757812 290.949219 L 316.808594 375 L 375 316.808594 L 349.136719 290.949219 L 232.757812 290.949219 "/>
<path style=" stroke:none;fill-rule:nonzero;fill:rgb(100%,100%,100%);fill-opacity:1;" d="M 25.863281 84.050781 L 103.449219 161.636719 L 161.636719 103.449219 L 142.242188 84.050781 L 25.863281 84.050781 "/>
<path style=" stroke:none;fill-rule:nonzero;fill:rgb(10.5896%,20.779419%,34.118652%);fill-opacity:1;" d="M 115.824219 106.679688 L 140.347656 82.15625 L 131.203125 73.015625 L 106.679688 97.539062 L 89.960938 80.820312 L 114.484375 56.296875 L 105.34375 47.152344 L 80.820312 71.675781 L 64.097656 54.957031 L 88.621094 30.433594 L 79.480469 21.289062 L 54.957031 45.8125 L 33.667969 24.523438 L 24.523438 33.667969 L 45.8125 54.957031 L 21.289062 79.480469 L 30.433594 88.621094 L 54.957031 64.097656 L 71.675781 80.820312 L 47.152344 105.34375 L 56.296875 114.484375 L 80.820312 89.960938 L 97.539062 106.679688 L 73.015625 131.203125 L 82.15625 140.347656 L 106.679688 115.824219 L 150.601562 159.742188 L 159.742188 150.601562 L 115.824219 106.679688 "/>
<path style=" stroke:none;fill-rule:nonzero;fill:rgb(10.5896%,20.779419%,34.118652%);fill-opacity:1;" d="M 329.1875 320.042969 L 353.710938 295.519531 L 344.566406 286.375 L 320.042969 310.902344 L 303.324219 294.179688 L 327.847656 269.65625 L 318.703125 260.515625 L 294.179688 285.039062 L 277.460938 268.320312 L 301.984375 243.796875 L 292.84375 234.652344 L 268.320312 259.175781 L 224.398438 215.257812 L 215.257812 224.398438 L 259.175781 268.320312 L 234.652344 292.84375 L 243.796875 301.984375 L 268.320312 277.460938 L 285.039062 294.179688 L 260.515625 318.703125 L 269.65625 327.847656 L 294.179688 303.324219 L 310.902344 320.042969 L 286.375 344.566406 L 295.519531 353.710938 L 320.042969 329.1875 L 341.332031 350.476562 L 350.476562 341.332031 L 329.1875 320.042969 "/>
<path style=" stroke:none;fill-rule:nonzero;fill:rgb(10.5896%,20.779419%,34.118652%);fill-opacity:1;" d="M 149.792969 266.171875 L 161.636719 278.015625 L 303.550781 135.449219 L 292.035156 123.929688 L 149.792969 266.171875 "/>
<path style=" stroke:none;fill-rule:nonzero;fill:rgb(100%,100%,100%);fill-opacity:1;" d="M 271.550781 90.515625 C 264.429688 90.515625 258.621094 96.324219 258.621094 103.449219 C 258.621094 110.570312 264.429688 116.378906 271.550781 116.378906 C 278.675781 116.378906 284.484375 110.570312 284.484375 103.449219 C 284.484375 96.324219 278.675781 90.515625 271.550781 90.515625 Z M 271.550781 129.308594 C 257.28125 129.308594 245.691406 117.71875 245.691406 103.449219 C 245.691406 89.179688 257.28125 77.585938 271.550781 77.585938 C 285.820312 77.585938 297.414062 89.179688 297.414062 103.449219 C 297.414062 117.71875 285.820312 129.308594 271.550781 129.308594 "/>
<path style=" stroke:none;fill-rule:nonzero;fill:rgb(100%,100%,100%);fill-opacity:1;" d="M 190.734375 207.453125 L 183.710938 200.429688 L 200.429688 183.710938 L 207.453125 190.734375 Z M 184.265625 167.546875 L 191.289062 174.570312 L 174.570312 191.289062 L 167.546875 184.265625 Z M 228.1875 211.46875 L 237.328125 202.324219 L 172.675781 137.671875 L 163.53125 146.8125 L 175.125 158.40625 L 158.40625 175.125 L 146.8125 163.53125 L 137.671875 172.675781 L 202.324219 237.328125 L 211.46875 228.1875 L 199.875 216.59375 L 216.59375 199.875 L 228.1875 211.46875 "/>
<path style=" stroke:none;fill-rule:nonzero;fill:rgb(100%,100%,100%);fill-opacity:1;" d="M 111.808594 198.535156 L 176.464844 263.191406 L 185.605469 254.050781 L 120.949219 189.394531 L 111.808594 198.535156 "/>
</g>
</svg>
